<mxfile host="app.diagrams.net" modified="2021-02-22T14:14:21.478Z" agent="5.0 (X11)" etag="60SLluRGl0G3S7rSkSgS" version="14.3.2" type="github">
  <diagram id="C5RBs43oDa-KdzZeNtuy" name="Page-1">
    <mxGraphModel dx="1350" dy="2000" grid="1" gridSize="10" guides="1" tooltips="1" connect="1" arrows="1" fold="1" page="1" pageScale="1" pageWidth="827" pageHeight="1169" math="0" shadow="0">
      <root>
        <mxCell id="WIyWlLk6GJQsqaUBKTNV-0" />
        <mxCell id="WIyWlLk6GJQsqaUBKTNV-1" parent="WIyWlLk6GJQsqaUBKTNV-0" />
        <mxCell id="-hX0p-gWuChUssL3cWtv-0" value="&lt;span style=&quot;left: 180.151px ; top: 661.466px ; font-size: 18.3404px ; font-family: sans-serif ; transform: scalex(0.895588)&quot;&gt;Empleados de una empresa.&lt;/span&gt;&lt;span style=&quot;left: 180.151px ; top: 686.487px ; font-size: 18.3404px ; font-family: sans-serif ; transform: scalex(0.888019)&quot;&gt;Una aplicación necesita almacenar información sobre empresas, sus empleados y&lt;/span&gt;&lt;span style=&quot;left: 180.151px ; top: 711.508px ; font-size: 18.3404px ; font-family: sans-serif ; transform: scalex(0.886947)&quot;&gt;sus clientes. Ambos se caracterizan por su nombre y edad.&lt;/span&gt;&lt;span style=&quot;left: 180.151px ; top: 736.529px ; font-size: 18.3404px ; font-family: sans-serif ; transform: scalex(0.883035)&quot;&gt;Los empleados tienen un sueldo bruto, los empleados que son directivos tienen una&lt;/span&gt;&lt;span style=&quot;left: 180.151px ; top: 761.55px ; font-size: 18.3404px ; font-family: sans-serif ; transform: scalex(0.887536)&quot;&gt;categoría, así como un conjunto de empleados subordinados.&lt;/span&gt;&lt;span style=&quot;left: 180.151px ; top: 786.571px ; font-size: 18.3404px ; font-family: sans-serif ; transform: scalex(0.885624)&quot;&gt;De los clientes además se necesita conocer su teléfono de contacto.&lt;/span&gt;&lt;span style=&quot;left: 180.151px ; top: 811.592px ; font-size: 18.3404px ; font-family: sans-serif ; transform: scalex(0.88245)&quot;&gt;La aplicación necesita mostrar los datos de empleados y clientes.&lt;/span&gt;" style="whiteSpace=wrap;html=1;aspect=fixed;" vertex="1" parent="WIyWlLk6GJQsqaUBKTNV-1">
          <mxGeometry x="250" y="-310" width="350" height="350" as="geometry" />
        </mxCell>
        <mxCell id="-hX0p-gWuChUssL3cWtv-1" value="Empresa" style="swimlane;fontStyle=1;align=center;verticalAlign=top;childLayout=stackLayout;horizontal=1;startSize=26;horizontalStack=0;resizeParent=1;resizeParentMax=0;resizeLast=0;collapsible=1;marginBottom=0;" vertex="1" parent="WIyWlLk6GJQsqaUBKTNV-1">
          <mxGeometry x="60" y="70" width="160" height="112" as="geometry" />
        </mxCell>
        <mxCell id="-hX0p-gWuChUssL3cWtv-2" value="+cliente: Cliente" style="text;strokeColor=none;fillColor=none;align=left;verticalAlign=top;spacingLeft=4;spacingRight=4;overflow=hidden;rotatable=0;points=[[0,0.5],[1,0.5]];portConstraint=eastwest;" vertex="1" parent="-hX0p-gWuChUssL3cWtv-1">
          <mxGeometry y="26" width="160" height="26" as="geometry" />
        </mxCell>
        <mxCell id="-hX0p-gWuChUssL3cWtv-30" value="+empleado: Empleado" style="text;strokeColor=none;fillColor=none;align=left;verticalAlign=top;spacingLeft=4;spacingRight=4;overflow=hidden;rotatable=0;points=[[0,0.5],[1,0.5]];portConstraint=eastwest;" vertex="1" parent="-hX0p-gWuChUssL3cWtv-1">
          <mxGeometry y="52" width="160" height="26" as="geometry" />
        </mxCell>
        <mxCell id="-hX0p-gWuChUssL3cWtv-3" value="" style="line;strokeWidth=1;fillColor=none;align=left;verticalAlign=middle;spacingTop=-1;spacingLeft=3;spacingRight=3;rotatable=0;labelPosition=right;points=[];portConstraint=eastwest;" vertex="1" parent="-hX0p-gWuChUssL3cWtv-1">
          <mxGeometry y="78" width="160" height="8" as="geometry" />
        </mxCell>
        <mxCell id="-hX0p-gWuChUssL3cWtv-4" value="+MostrarInformacion()" style="text;strokeColor=none;fillColor=none;align=left;verticalAlign=top;spacingLeft=4;spacingRight=4;overflow=hidden;rotatable=0;points=[[0,0.5],[1,0.5]];portConstraint=eastwest;" vertex="1" parent="-hX0p-gWuChUssL3cWtv-1">
          <mxGeometry y="86" width="160" height="26" as="geometry" />
        </mxCell>
        <mxCell id="-hX0p-gWuChUssL3cWtv-5" value="Empleado" style="swimlane;fontStyle=1;align=center;verticalAlign=top;childLayout=stackLayout;horizontal=1;startSize=26;horizontalStack=0;resizeParent=1;resizeParentMax=0;resizeLast=0;collapsible=1;marginBottom=0;" vertex="1" parent="WIyWlLk6GJQsqaUBKTNV-1">
          <mxGeometry x="440" y="250" width="160" height="86" as="geometry" />
        </mxCell>
        <mxCell id="-hX0p-gWuChUssL3cWtv-10" value="+sueldo: double" style="text;strokeColor=none;fillColor=none;align=left;verticalAlign=top;spacingLeft=4;spacingRight=4;overflow=hidden;rotatable=0;points=[[0,0.5],[1,0.5]];portConstraint=eastwest;" vertex="1" parent="-hX0p-gWuChUssL3cWtv-5">
          <mxGeometry y="26" width="160" height="26" as="geometry" />
        </mxCell>
        <mxCell id="-hX0p-gWuChUssL3cWtv-7" value="" style="line;strokeWidth=1;fillColor=none;align=left;verticalAlign=middle;spacingTop=-1;spacingLeft=3;spacingRight=3;rotatable=0;labelPosition=right;points=[];portConstraint=eastwest;" vertex="1" parent="-hX0p-gWuChUssL3cWtv-5">
          <mxGeometry y="52" width="160" height="8" as="geometry" />
        </mxCell>
        <mxCell id="-hX0p-gWuChUssL3cWtv-8" value="+getSueldo" style="text;strokeColor=none;fillColor=none;align=left;verticalAlign=top;spacingLeft=4;spacingRight=4;overflow=hidden;rotatable=0;points=[[0,0.5],[1,0.5]];portConstraint=eastwest;" vertex="1" parent="-hX0p-gWuChUssL3cWtv-5">
          <mxGeometry y="60" width="160" height="26" as="geometry" />
        </mxCell>
        <mxCell id="-hX0p-gWuChUssL3cWtv-11" value="Directivo" style="swimlane;fontStyle=1;align=center;verticalAlign=top;childLayout=stackLayout;horizontal=1;startSize=26;horizontalStack=0;resizeParent=1;resizeParentMax=0;resizeLast=0;collapsible=1;marginBottom=0;" vertex="1" parent="WIyWlLk6GJQsqaUBKTNV-1">
          <mxGeometry x="440" y="420" width="160" height="138" as="geometry" />
        </mxCell>
        <mxCell id="-hX0p-gWuChUssL3cWtv-12" value="+categoria: String" style="text;strokeColor=none;fillColor=none;align=left;verticalAlign=top;spacingLeft=4;spacingRight=4;overflow=hidden;rotatable=0;points=[[0,0.5],[1,0.5]];portConstraint=eastwest;" vertex="1" parent="-hX0p-gWuChUssL3cWtv-11">
          <mxGeometry y="26" width="160" height="26" as="geometry" />
        </mxCell>
        <mxCell id="-hX0p-gWuChUssL3cWtv-13" value="+subordinado: Empleado" style="text;strokeColor=none;fillColor=none;align=left;verticalAlign=top;spacingLeft=4;spacingRight=4;overflow=hidden;rotatable=0;points=[[0,0.5],[1,0.5]];portConstraint=eastwest;" vertex="1" parent="-hX0p-gWuChUssL3cWtv-11">
          <mxGeometry y="52" width="160" height="26" as="geometry" />
        </mxCell>
        <mxCell id="-hX0p-gWuChUssL3cWtv-15" value="" style="line;strokeWidth=1;fillColor=none;align=left;verticalAlign=middle;spacingTop=-1;spacingLeft=3;spacingRight=3;rotatable=0;labelPosition=right;points=[];portConstraint=eastwest;" vertex="1" parent="-hX0p-gWuChUssL3cWtv-11">
          <mxGeometry y="78" width="160" height="8" as="geometry" />
        </mxCell>
        <mxCell id="-hX0p-gWuChUssL3cWtv-16" value="+getCategoria&#xa;" style="text;strokeColor=none;fillColor=none;align=left;verticalAlign=top;spacingLeft=4;spacingRight=4;overflow=hidden;rotatable=0;points=[[0,0.5],[1,0.5]];portConstraint=eastwest;" vertex="1" parent="-hX0p-gWuChUssL3cWtv-11">
          <mxGeometry y="86" width="160" height="26" as="geometry" />
        </mxCell>
        <mxCell id="-hX0p-gWuChUssL3cWtv-31" value="+getSubordinado" style="text;strokeColor=none;fillColor=none;align=left;verticalAlign=top;spacingLeft=4;spacingRight=4;overflow=hidden;rotatable=0;points=[[0,0.5],[1,0.5]];portConstraint=eastwest;" vertex="1" parent="-hX0p-gWuChUssL3cWtv-11">
          <mxGeometry y="112" width="160" height="26" as="geometry" />
        </mxCell>
        <mxCell id="-hX0p-gWuChUssL3cWtv-17" value="Persona" style="swimlane;fontStyle=1;align=center;verticalAlign=top;childLayout=stackLayout;horizontal=1;startSize=26;horizontalStack=0;resizeParent=1;resizeParentMax=0;resizeLast=0;collapsible=1;marginBottom=0;" vertex="1" parent="WIyWlLk6GJQsqaUBKTNV-1">
          <mxGeometry x="390" y="70" width="160" height="112" as="geometry" />
        </mxCell>
        <mxCell id="-hX0p-gWuChUssL3cWtv-18" value="+nombre: String&#xa;" style="text;strokeColor=none;fillColor=none;align=left;verticalAlign=top;spacingLeft=4;spacingRight=4;overflow=hidden;rotatable=0;points=[[0,0.5],[1,0.5]];portConstraint=eastwest;" vertex="1" parent="-hX0p-gWuChUssL3cWtv-17">
          <mxGeometry y="26" width="160" height="26" as="geometry" />
        </mxCell>
        <mxCell id="-hX0p-gWuChUssL3cWtv-19" value="+edad: int" style="text;strokeColor=none;fillColor=none;align=left;verticalAlign=top;spacingLeft=4;spacingRight=4;overflow=hidden;rotatable=0;points=[[0,0.5],[1,0.5]];portConstraint=eastwest;" vertex="1" parent="-hX0p-gWuChUssL3cWtv-17">
          <mxGeometry y="52" width="160" height="26" as="geometry" />
        </mxCell>
        <mxCell id="-hX0p-gWuChUssL3cWtv-21" value="" style="line;strokeWidth=1;fillColor=none;align=left;verticalAlign=middle;spacingTop=-1;spacingLeft=3;spacingRight=3;rotatable=0;labelPosition=right;points=[];portConstraint=eastwest;" vertex="1" parent="-hX0p-gWuChUssL3cWtv-17">
          <mxGeometry y="78" width="160" height="8" as="geometry" />
        </mxCell>
        <mxCell id="-hX0p-gWuChUssL3cWtv-22" value="+ method(type): type" style="text;strokeColor=none;fillColor=none;align=left;verticalAlign=top;spacingLeft=4;spacingRight=4;overflow=hidden;rotatable=0;points=[[0,0.5],[1,0.5]];portConstraint=eastwest;" vertex="1" parent="-hX0p-gWuChUssL3cWtv-17">
          <mxGeometry y="86" width="160" height="26" as="geometry" />
        </mxCell>
        <mxCell id="-hX0p-gWuChUssL3cWtv-23" value="Cliente" style="swimlane;fontStyle=1;align=center;verticalAlign=top;childLayout=stackLayout;horizontal=1;startSize=26;horizontalStack=0;resizeParent=1;resizeParentMax=0;resizeLast=0;collapsible=1;marginBottom=0;" vertex="1" parent="WIyWlLk6GJQsqaUBKTNV-1">
          <mxGeometry x="210" y="250" width="160" height="86" as="geometry" />
        </mxCell>
        <mxCell id="-hX0p-gWuChUssL3cWtv-24" value="+telefono: int" style="text;strokeColor=none;fillColor=none;align=left;verticalAlign=top;spacingLeft=4;spacingRight=4;overflow=hidden;rotatable=0;points=[[0,0.5],[1,0.5]];portConstraint=eastwest;" vertex="1" parent="-hX0p-gWuChUssL3cWtv-23">
          <mxGeometry y="26" width="160" height="26" as="geometry" />
        </mxCell>
        <mxCell id="-hX0p-gWuChUssL3cWtv-25" value="" style="line;strokeWidth=1;fillColor=none;align=left;verticalAlign=middle;spacingTop=-1;spacingLeft=3;spacingRight=3;rotatable=0;labelPosition=right;points=[];portConstraint=eastwest;" vertex="1" parent="-hX0p-gWuChUssL3cWtv-23">
          <mxGeometry y="52" width="160" height="8" as="geometry" />
        </mxCell>
        <mxCell id="-hX0p-gWuChUssL3cWtv-26" value="+getTelefono" style="text;strokeColor=none;fillColor=none;align=left;verticalAlign=top;spacingLeft=4;spacingRight=4;overflow=hidden;rotatable=0;points=[[0,0.5],[1,0.5]];portConstraint=eastwest;" vertex="1" parent="-hX0p-gWuChUssL3cWtv-23">
          <mxGeometry y="60" width="160" height="26" as="geometry" />
        </mxCell>
        <mxCell id="-hX0p-gWuChUssL3cWtv-27" value="Extends" style="endArrow=block;endSize=16;endFill=0;html=1;" edge="1" parent="WIyWlLk6GJQsqaUBKTNV-1" source="-hX0p-gWuChUssL3cWtv-23" target="-hX0p-gWuChUssL3cWtv-22">
          <mxGeometry width="160" relative="1" as="geometry">
            <mxPoint x="290" y="350" as="sourcePoint" />
            <mxPoint x="450" y="350" as="targetPoint" />
          </mxGeometry>
        </mxCell>
        <mxCell id="-hX0p-gWuChUssL3cWtv-28" value="Extends" style="endArrow=block;endSize=16;endFill=0;html=1;entryX=0.469;entryY=0.962;entryDx=0;entryDy=0;entryPerimeter=0;" edge="1" parent="WIyWlLk6GJQsqaUBKTNV-1" source="-hX0p-gWuChUssL3cWtv-5" target="-hX0p-gWuChUssL3cWtv-22">
          <mxGeometry width="160" relative="1" as="geometry">
            <mxPoint x="341.6129032258066" y="260" as="sourcePoint" />
            <mxPoint x="407.41935483870975" y="192" as="targetPoint" />
          </mxGeometry>
        </mxCell>
        <mxCell id="-hX0p-gWuChUssL3cWtv-29" value="Extends" style="endArrow=block;endSize=16;endFill=0;html=1;exitX=0.5;exitY=0;exitDx=0;exitDy=0;" edge="1" parent="WIyWlLk6GJQsqaUBKTNV-1" source="-hX0p-gWuChUssL3cWtv-11" target="-hX0p-gWuChUssL3cWtv-8">
          <mxGeometry width="160" relative="1" as="geometry">
            <mxPoint x="351.6129032258066" y="270" as="sourcePoint" />
            <mxPoint x="417.41935483870975" y="202" as="targetPoint" />
          </mxGeometry>
        </mxCell>
        <mxCell id="-hX0p-gWuChUssL3cWtv-32" value="" style="endArrow=none;html=1;edgeStyle=orthogonalEdgeStyle;exitX=1;exitY=0.5;exitDx=0;exitDy=0;entryX=0;entryY=0.5;entryDx=0;entryDy=0;" edge="1" parent="WIyWlLk6GJQsqaUBKTNV-1" source="-hX0p-gWuChUssL3cWtv-30" target="-hX0p-gWuChUssL3cWtv-19">
          <mxGeometry relative="1" as="geometry">
            <mxPoint x="220" y="380" as="sourcePoint" />
            <mxPoint x="380" y="380" as="targetPoint" />
          </mxGeometry>
        </mxCell>
        <mxCell id="-hX0p-gWuChUssL3cWtv-33" value="1..n" style="edgeLabel;resizable=0;html=1;align=left;verticalAlign=bottom;" connectable="0" vertex="1" parent="-hX0p-gWuChUssL3cWtv-32">
          <mxGeometry x="-1" relative="1" as="geometry" />
        </mxCell>
        <mxCell id="-hX0p-gWuChUssL3cWtv-34" value="1..n" style="edgeLabel;resizable=0;html=1;align=right;verticalAlign=bottom;" connectable="0" vertex="1" parent="-hX0p-gWuChUssL3cWtv-32">
          <mxGeometry x="1" relative="1" as="geometry" />
        </mxCell>
        <mxCell id="-hX0p-gWuChUssL3cWtv-35" value="Pertenecen" style="text;html=1;align=center;verticalAlign=middle;resizable=0;points=[];autosize=1;" vertex="1" parent="WIyWlLk6GJQsqaUBKTNV-1">
          <mxGeometry x="260" y="110" width="80" height="20" as="geometry" />
        </mxCell>
      </root>
    </mxGraphModel>
  </diagram>
</mxfile>
